# xmcd
#
# Track frame offsets:
#	150
#	17314
#	33870
#	48943
#	65564
#	81986
#	102159
#	117268
#	134654
#	150717
#
# Disc length: 2208 seconds
#
# Revision: 1
# Processed by: cddbd v1.4PL0 Copyright (c) Steve Scherf et al.
# Submitted via: audiograbber 1.81.02
#
DISCID=7a089e0a
DTITLE=Deans - Speedy Gonzales
DYEAR=2002
DGENRE=Country
TTITLE0=Speedy Gonzales
TTITLE1=Yakety Yak
TTITLE2=I Can't Get Over You
TTITLE3=Cha Cha Cha D'Amour
TTITLE4=Stand By Me
TTITLE5=Lucille
TTITLE6=Everyday
TTITLE7=Hayley's Medley
TTITLE8=Billy B. Bad
TTITLE9=wig Wam Bam
EXTD=
EXTT0=
EXTT1=
EXTT2=
EXTT3=
EXTT4=
EXTT5=
EXTT6=
EXTT7=
EXTT8=
EXTT9=
PLAYORDER=
